<?xml version="1.0" standalone="no"?>
<!DOCTYPE svg PUBLIC "-//W3C//DTD SVG 20010904//EN"
 "http://www.w3.org/TR/2001/REC-SVG-20010904/DTD/svg10.dtd">
<svg version="1.0" xmlns="http://www.w3.org/2000/svg"
 width="626.000000pt" height="626.000000pt" viewBox="0 0 626.000000 626.000000"
 preserveAspectRatio="xMidYMid meet">

<g transform="translate(0.000000,626.000000) scale(0.100000,-0.100000)"
fill="#000000" stroke="none">
<path d="M2749 5030 c-149 -25 -338 -102 -392 -158 l-29 -30 -44 -563 c-24
-310 -44 -573 -44 -585 0 -20 -7 -21 -122 -27 -67 -3 -123 -5 -125 -4 -1 2 -7
185 -13 407 -11 441 -10 434 -71 466 -56 29 -110 4 -154 -70 -6 -11 -46 -27
-110 -43 -80 -20 -127 -25 -235 -27 -128 -1 -138 0 -191 26 -117 58 -237 54
-329 -12 l-26 -19 3 -273 c3 -150 6 -278 8 -284 2 -8 20 -6 57 7 104 35 155
34 259 -2 89 -31 102 -33 234 -33 148 0 236 15 303 55 18 10 35 19 38 19 2 0
4 -51 4 -114 l0 -114 -36 -6 c-49 -10 -128 -88 -143 -141 -7 -27 -9 -135 -4
-343 l6 -303 -334 7 c-232 4 -342 3 -361 -5 l-28 -11 0 -299 c0 -454 21 -696
75 -857 105 -312 349 -429 975 -464 242 -13 1757 -13 1926 0 342 28 627 96
839 202 421 210 629 547 690 1118 16 153 33 817 21 863 -13 53 -125 55 -426 6
-366 -58 -600 -133 -637 -202 -17 -31 -18 -23 -26 308 l-8 340 23 15 c71 46
105 118 92 194 -8 51 -72 119 -124 133 -21 5 -167 6 -355 2 -176 -4 -323 -4
-326 0 -4 3 -21 141 -38 306 -18 165 -35 316 -38 336 -5 35 -10 39 -82 73
-102 48 -207 83 -304 101 -84 16 -316 19 -398 5z m373 -75 c87 -15 233 -62
300 -96 22 -11 40 -29 43 -42 9 -39 67 -609 62 -613 -2 -3 -157 -8 -343 -13
-378 -8 -390 -11 -442 -79 -23 -30 -27 -45 -27 -102 0 -58 4 -71 29 -105 16
-21 46 -45 67 -54 l39 -16 0 -68 c0 -45 -4 -69 -12 -72 -15 -5 -521 -25 -525
-21 -7 7 46 619 55 628 15 15 147 56 256 80 87 19 131 23 316 23 223 0 307
-10 457 -54 l62 -19 -5 27 c-2 14 -11 79 -18 145 -8 65 -19 123 -24 128 -18
18 -199 67 -289 79 -128 17 -365 7 -481 -21 -50 -12 -90 -26 -87 -31 4 -5 0
-6 -8 -3 -7 2 -45 -7 -84 -21 -39 -14 -73 -25 -77 -25 -5 0 -1 76 10 168 6 51
39 77 159 123 170 66 383 86 567 54z m-735 -532 c-2 -21 -4 -4 -4 37 0 41 2
58 4 38 2 -21 2 -55 0 -75z m-486 -128 c4 -93 8 -273 9 -400 l3 -230 -31 -3
-30 -3 -6 123 c-11 235 -17 674 -9 681 4 4 19 7 33 5 l25 -3 6 -170z m484 35
c3 -5 1 -10 -4 -10 -6 0 -11 5 -11 10 0 6 2 10 4 10 3 0 8 -4 11 -10z m-1223
-219 c34 -23 83 -48 109 -55 120 -36 275 -29 413 19 40 14 76 25 79 25 4 0 7
-27 7 -59 0 -55 -2 -61 -35 -90 -95 -83 -387 -104 -533 -39 -47 21 -144 29
-222 18 l-35 -5 0 104 0 104 35 13 c58 22 113 11 182 -35z m3141 9 c39 -31 52
-81 32 -124 -31 -64 -11 -62 -770 -78 -740 -16 -734 -16 -769 33 -33 47 -15
122 37 151 22 13 679 33 1208 36 223 2 238 1 262 -18z m-72 -460 c4 -96 8
-275 10 -398 l4 -223 -35 -38 c-28 -31 -46 -41 -93 -51 -32 -6 -61 -9 -64 -6
-3 3 -9 159 -14 346 -9 380 -10 384 -79 422 -33 18 -49 19 -280 13 -274 -7
-298 -13 -332 -76 -18 -32 -18 -54 -12 -405 l7 -371 -74 -6 c-41 -4 -158 -9
-261 -13 l-187 -6 15 48 c8 26 15 48 17 49 40 22 57 39 57 60 0 26 -24 55 -44
55 -8 0 -18 23 -25 59 -27 138 -123 261 -254 326 -41 20 -93 39 -115 42 -26 3
-42 11 -42 19 0 7 -11 21 -25 30 -21 14 -31 15 -51 5 -14 -6 -28 -20 -31 -30
-3 -13 -17 -20 -45 -24 -23 -3 -74 -22 -114 -41 -131 -65 -228 -189 -255 -327
-7 -33 -17 -59 -24 -59 -6 0 -20 -9 -30 -20 -24 -26 -13 -66 25 -85 17 -9 30
-22 30 -29 0 -7 3 -28 7 -46 l6 -33 -126 5 c-69 2 -128 6 -131 8 -2 3 -6 145
-8 317 -3 304 -2 312 18 340 49 66 33 64 622 84 295 10 547 21 559 24 46 11
63 43 63 117 l0 68 33 1 c152 5 1201 26 1232 25 l40 -1 6 -175z m-294 -22 c16
-15 23 -33 23 -61 l0 -39 -30 26 c-69 58 -224 71 -420 37 -58 -10 -107 -17
-109 -15 -3 2 5 17 16 32 l20 27 199 5 c109 3 217 7 238 8 29 1 46 -4 63 -20z
m-113 -117 c3 -4 8 -143 12 -308 l7 -300 -48 -7 c-27 -3 -92 -9 -145 -12 l-97
-7 -6 153 c-4 84 -7 227 -7 316 l0 163 78 4 c166 7 201 7 206 -2z m-1504 -174
l0 -74 -40 -18 c-22 -10 -40 -22 -40 -27 0 -4 -7 -8 -15 -8 -18 0 -65 -47 -65
-65 0 -8 -4 -15 -9 -15 -5 0 -15 -16 -21 -35 -11 -34 -13 -35 -63 -35 -29 0
-63 -3 -76 -7 -22 -6 -23 -4 -16 28 32 147 135 265 273 315 69 25 72 23 72
-59z m225 39 c77 -36 159 -114 192 -182 19 -37 47 -134 41 -139 -2 -1 -35 0
-74 3 -70 4 -72 5 -78 33 -10 50 -126 159 -170 159 -16 0 -26 43 -26 111 0 44
2 49 23 49 12 0 54 -15 92 -34z m2780 -128 c10 -171 -11 -643 -35 -806 -10
-73 -35 -187 -55 -255 -63 -212 -143 -348 -290 -492 -225 -220 -525 -336
-1025 -396 -138 -16 -1580 -24 -1886 -10 -606 28 -827 94 -953 281 -102 154
-140 415 -141 974 l0 249 208 -7 c451 -14 1687 -19 1967 -7 570 23 1040 75
1107 123 38 26 111 131 149 212 17 36 41 73 53 81 51 37 324 107 561 144 170
27 178 28 261 30 l72 1 7 -122z m-3045 -32 c0 -2 -7 -7 -16 -10 -8 -3 -12 -2
-9 4 6 10 25 14 25 6z m215 -6 c3 -6 -1 -7 -9 -4 -18 7 -21 14 -7 14 6 0 13
-4 16 -10z m36 -27 c13 -16 12 -17 -3 -4 -17 13 -22 21 -14 21 2 0 10 -8 17
-17z m-336 -31 l-28 -27 24 31 c13 17 26 30 28 27 3 -2 -8 -16 -24 -31z m376
-9 c13 -16 12 -17 -3 -4 -17 13 -22 21 -14 21 2 0 10 -8 17 -17z m-196 -33
c10 0 29 9 41 21 l22 21 41 -37 c46 -42 49 -54 21 -80 -26 -23 -25 -50 1 -76
26 -26 18 -51 -27 -85 l-35 -27 -20 22 c-25 27 -63 27 -88 0 l-20 -21 -28 20
c-16 11 -35 32 -43 46 -12 24 -12 28 8 42 28 19 28 57 1 83 -25 23 -17 44 32
85 l32 27 21 -21 c12 -11 31 -20 41 -20z m235 -35 c0 -5 -5 -3 -10 5 -5 8 -10
20 -10 25 0 6 5 3 10 -5 5 -8 10 -19 10 -25z m-481 -167 c8 -18 13 -37 12 -42
-1 -5 8 -6 19 -3 17 4 19 3 9 -9 -8 -10 -34 -14 -86 -14 l-74 0 -15 35 c-25
61 -22 65 54 65 67 0 68 0 81 -32z m8 10 c-3 -8 -6 -5 -6 6 -1 11 2 17 5 13 3
-3 4 -12 1 -19z m633 7 c0 -9 -7 -31 -14 -50 -15 -35 -15 -35 -80 -35 -36 0
-67 3 -69 8 -2 4 4 26 15 50 l19 42 64 0 c52 0 65 -3 65 -15z m-150 1 c0 -3
-4 -8 -10 -11 -5 -3 -10 -1 -10 4 0 6 5 11 10 11 6 0 10 -2 10 -4z m-32 -55
c-7 -12 -16 -21 -21 -21 -4 0 0 11 10 24 22 29 30 27 11 -3z"/>
</g>
</svg>
